<svg width="59" height="58" viewBox="0 0 59 58" fill="none" xmlns="http://www.w3.org/2000/svg">
<ellipse cx="29.4901" cy="28.6368" rx="28.7059" ry="28.4029" fill="#EFF5FB"/>
<g clip-path="url(#clip0_411_1276)">
<path d="M39.9558 40.4713H17.5293V38.992H19.0244V27.8971C19.0244 26.6397 19.9962 25.6781 21.267 25.6781H30.2376C31.5085 25.6781 32.4803 26.6397 32.4803 27.8971V38.992H33.2278V27.1575C33.2278 25.9 32.256 24.9385 30.9852 24.9385H26.4999V19.0212C26.4999 17.7638 27.4717 16.8022 28.7425 16.8022H37.7131C38.984 16.8022 39.9558 17.7638 39.9558 19.0212V38.992H41.4509V40.4713H39.9558ZM25.0048 28.6368H22.0146V30.1161H25.0048V28.6368ZM25.0048 31.5954H22.0146V33.0747H25.0048V31.5954ZM25.0048 34.554H22.0146V36.0334H25.0048V34.554ZM29.4901 28.6368H26.4999V30.1161H29.4901V28.6368ZM29.4901 31.5954H26.4999V33.0747H29.4901V31.5954ZM29.4901 34.554H26.4999V36.0334H29.4901V34.554ZM32.4803 19.7609H29.4901V21.2402H32.4803V19.7609ZM32.4803 22.7195H29.4901V24.1988H32.4803V22.7195ZM36.9656 19.7609H33.9754V21.2402H36.9656V19.7609ZM36.9656 22.7195H33.9754V24.1988H36.9656V22.7195Z" fill="#3399FF"/>
</g>
<defs>
<clipPath id="clip0_411_1276">
<rect width="23.9216" height="23.6691" fill="white" transform="translate(17.5293 16.8022)"/>
</clipPath>
</defs>
</svg>
