<svg width="59" height="58" viewBox="0 0 59 58" fill="none" xmlns="http://www.w3.org/2000/svg">
<ellipse cx="29.4901" cy="29.0252" rx="28.7059" ry="28.4029" fill="#FBEFF1"/>
<path d="M43.1435 31.9459C41.3227 32.4909 22.8083 37.7915 22.8083 37.7915C22.8083 37.7915 17.6824 39.489 13.8896 34.9124L18.0987 33.1816C18.8304 33.4271 19.5116 33.4063 20.4157 33.1192L25.2009 31.9459L18.023 21.428C18.023 21.428 16.5681 19.1438 21.6099 20.2588C21.6099 20.2588 30.7304 27.1695 32.3746 28.4385C32.3746 28.4385 33.2156 28.9128 34.7672 28.4385L41.9451 26.1003C41.9451 26.1003 46.806 24.6316 47.9245 27.2694C49.1019 30.0362 44.96 31.4009 43.1435 31.9459ZM13.0822 34.0678C11.2068 31.9958 10.8494 30.7768 10.8494 30.7768C10.8494 30.7768 11.2362 28.243 14.4362 30.7768C15.3697 31.5173 16.3621 32.0249 16.9928 32.441L13.0822 34.0678Z" fill="#FF647C"/>
</svg>
